HIERARCHY
ROOT hip
{
  OFFSET 0 0 0
  CHANNELS 6 Xposition Yposition Zposition Zrotation Yrotation Xrotation
  JOINT abdomen
  {
    OFFSET 0 20.6881 -0.73152
    CHANNELS 3 Zrotation Xrotation Yrotation
    JOINT chest
    {
      OFFSET 0 11.7043 -0.48768
      CHANNELS 3 Zrotation Xrotation Yrotation
      JOINT neck
      {
        OFFSET 0 22.1894 -2.19456
        CHANNELS 3 Zrotation Xrotation Yrotation
        JOINT head
        {
          OFFSET -0.24384 7.07133 1.2192
          CHANNELS 3 Zrotation Xrotation Yrotation
          JOINT leftEye
          {
            OFFSET 4.14528 8.04674 8.04672
            CHANNELS 3 Zrotation Xrotation Yrotation
            End Site
            {
              OFFSET 1 0 0
            }
          }
          JOINT rightEye
          {
            OFFSET -3.6576 8.04674 8.04672
            CHANNELS 3 Zrotation Xrotation Yrotation
            End Site
            {
              OFFSET 1 0 0
            }
          }
        }
      }
      JOINT rCollar
      {
        OFFSET -2.68224 19.2634 -4.8768
        CHANNELS 3 Zrotation Xrotation Yrotation
        JOINT rShldr
        {
          OFFSET -8.77824 -1.95073 1.46304
          CHANNELS 3 Zrotation Xrotation Yrotation
          JOINT rForeArm
          {
            OFFSET -28.1742 -1.7115 0.48768
            CHANNELS 3 Zrotation Xrotation Yrotation
            JOINT rHand
            {
              OFFSET -22.5879 0.773209 7.07136
              CHANNELS 3 Zrotation Xrotation Yrotation
              JOINT rThumb1
              {
                OFFSET -1.2192 -0.487915 3.41376
                CHANNELS 3 Zrotation Xrotation Yrotation
                JOINT rThumb2
                {
                  OFFSET -3.37035 -0.52449 3.41376
                  CHANNELS 3 Zrotation Xrotation Yrotation
                  End Site
                  {
                    OFFSET -1.78271 -1.18214 1.43049
                  }
                }
              }
              JOINT rIndex1
              {
                OFFSET -7.75947 0.938293 5.60832
                CHANNELS 3 Zrotation Xrotation Yrotation
                JOINT rIndex2
                {
                  OFFSET -2.54057 -0.884171 1.56538
                  CHANNELS 3 Zrotation Xrotation Yrotation
                  End Site
                  {
                    OFFSET -1.62519 -0.234802 1.16502
                  }
                }
              }
              JOINT rMid1
              {
                OFFSET -8.24714 1.18213 3.41376
                CHANNELS 3 Zrotation Xrotation Yrotation
                JOINT rMid2
                {
                  OFFSET -3.10165 -0.590103 1.0647
                  CHANNELS 3 Zrotation Xrotation Yrotation
                  End Site
                  {
                    OFFSET -2.48547 -0.328903 0.83742
                  }
                }
              }
              JOINT rRing1
              {
                OFFSET -8.82822 0.546677 1.51678
                CHANNELS 3 Zrotation Xrotation Yrotation
                JOINT rRing2
                {
                  OFFSET -2.60934 -0.819778 -0.0198488
                  CHANNELS 3 Zrotation Xrotation Yrotation
                  End Site
                  {
                    OFFSET -2.33842 -0.294052 0.168128
                  }
                }
              }
              JOINT rPinky1
              {
                OFFSET -8.27202 -0.0477905 -0.4584
                CHANNELS 3 Zrotation Xrotation Yrotation
                JOINT rPinky2
                {
                  OFFSET -1.82734 -0.647385 -0.700984
                  CHANNELS 3 Zrotation Xrotation Yrotation
                  End Site
                  {
                    OFFSET -1.69225 -0.51767 -0.607171
                  }
                }
              }
            }
          }
        }
      }
      JOINT lCollar
      {
        OFFSET 2.68224 19.2634 -4.8768
        CHANNELS 3 Zrotation Xrotation Yrotation
        JOINT lShldr
        {
          OFFSET 8.77824 -1.95073 1.46304
          CHANNELS 3 Zrotation Xrotation Yrotation
          JOINT lForeArm
          {
            OFFSET 28.1742 -1.7115 0.48768
            CHANNELS 3 Zrotation Xrotation Yrotation
            JOINT lHand
            {
              OFFSET 22.5879 0.773209 7.07136
              CHANNELS 3 Zrotation Xrotation Yrotation
              JOINT lThumb1
              {
                OFFSET 1.2192 -0.487915 3.41376
                CHANNELS 3 Zrotation Xrotation Yrotation
                JOINT lThumb2
                {
                  OFFSET 3.37035 -0.52449 3.41376
                  CHANNELS 3 Zrotation Xrotation Yrotation
                  End Site
                  {
                    OFFSET 1.78271 -1.18214 1.43049
                  }
                }
              }
              JOINT lIndex1
              {
                OFFSET 7.75947 0.938293 5.60832
                CHANNELS 3 Zrotation Xrotation Yrotation
                JOINT lIndex2
                {
                  OFFSET 2.54057 -0.884171 1.56538
                  CHANNELS 3 Zrotation Xrotation Yrotation
                  End Site
                  {
                    OFFSET 1.62519 -0.234802 1.16502
                  }
                }
              }
              JOINT lMid1
              {
                OFFSET 8.24714 1.18213 3.41376
                CHANNELS 3 Zrotation Xrotation Yrotation
                JOINT lMid2
                {
                  OFFSET 3.10165 -0.590103 1.0647
                  CHANNELS 3 Zrotation Xrotation Yrotation
                  End Site
                  {
                    OFFSET 2.48547 -0.328903 0.83742
                  }
                }
              }
              JOINT lRing1
              {
                OFFSET 8.82822 0.546677 1.51678
                CHANNELS 3 Zrotation Xrotation Yrotation
                JOINT lRing2
                {
                  OFFSET 2.60934 -0.819778 -0.0198488
                  CHANNELS 3 Zrotation Xrotation Yrotation
                  End Site
                  {
                    OFFSET 2.33842 -0.294052 0.168128
                  }
                }
              }
              JOINT lPinky1
              {
                OFFSET 8.27202 -0.0477905 -0.4584
                CHANNELS 3 Zrotation Xrotation Yrotation
                JOINT lPinky2
                {
                  OFFSET 1.82734 -0.647385 -0.700984
                  CHANNELS 3 Zrotation Xrotation Yrotation
                  End Site
                  {
                    OFFSET 1.69225 -0.51767 -0.607171
                  }
                }
              }
            }
          }
        }
      }
    }
  }
  JOINT rButtock
  {
    OFFSET -8.77824 4.35084 1.2192
    CHANNELS 3 Zrotation Xrotation Yrotation
    JOINT rThigh
    {
      OFFSET 0 -1.70687 -2.19456
      CHANNELS 3 Zrotation Xrotation Yrotation
      JOINT rShin
      {
        OFFSET 0 -36.8199 0.73152
        CHANNELS 3 Zrotation Xrotation Yrotation
        JOINT rFoot
        {
          OFFSET 0.73152 -45.1104 -5.12064
          CHANNELS 3 Zrotation Xrotation Yrotation
          End Site
          {
            OFFSET -1.1221 -3.69964 12.103
          }
        }
      }
    }
  }
  JOINT lButtock
  {
    OFFSET 8.77824 4.35084 1.2192
    CHANNELS 3 Zrotation Xrotation Yrotation
    JOINT lThigh
    {
      OFFSET 0 -1.70687 -2.19456
      CHANNELS 3 Zrotation Xrotation Yrotation
      JOINT lShin
      {
        OFFSET 0 -36.8199 0.73152
        CHANNELS 3 Zrotation Xrotation Yrotation
        JOINT lFoot
        {
          OFFSET -0.73152 -45.1104 -5.12064
          CHANNELS 3 Zrotation Xrotation Yrotation
          End Site
          {
            OFFSET 1.1221 -3.69964 12.103
          }
        }
      }
    }
  }
}
MOTION
Frames:	7
Frame Time:	0.00833333
-4.65388 83.5906 38.4298 -3.4493 2.2833 0.3426 2.57054 -0.607085 7.90519 0.899793 -4.81007 2.28547 -10.2976 9.25106 -8.76316 10.853 2.81437 -16.0172 -0.0 0.0 0.0 -0.0 0.0 0.0 1.03868e-13 8.74497e-15 1.01778e-13 18.6233 8.9273 47.6556 -27.1359 -43.6407 90.7348 -0.0165438 -3.66959 -0.51644 -4.61527e-10 3.47635e-11 -2.62685e-10 -7.9577e-10 6.34743e-11 -4.59264e-10 -4.61526e-10 3.47666e-11 -2.62698e-10 7.73091 5.47488 0.417314 -4.61531e-10 3.47661e-11 -2.62685e-10 2.90554 0.965183 0.102902 -4.61523e-10 3.47668e-11 -2.62692e-10 10.2786 0.731801 0.0259123 -4.61528e-10 3.47702e-11 -2.62695e-10 2.22167 -0.733487 -0.20892 1.0367e-13 8.74691e-15 1.01728e-13 -10.5305 -35.3075 -40.8777 13.7268 -56.986 -127.888 0.089652 -8.50994 1.20496 -4.9192e-10 -1.99205e-10 -4.99665e-11 -8.45674e-10 -3.4932e-10 -8.55498e-11 -4.91921e-10 -1.99204e-10 -4.99538e-11 -7.73091 5.47488 -0.417314 -4.91919e-10 -1.99204e-10 -4.99633e-11 -2.90554 0.965183 -0.102902 -4.91924e-10 -1.99204e-10 -4.99689e-11 -10.2786 0.731801 -0.0259123 -4.91918e-10 -1.99202e-10 -4.99761e-11 -2.22167 -0.733487 0.20892 -2.03217e-16 0.0 -3.88251e-19 -21.6253 -3.07706 -0.0138353 -0.00035173 -0.50535 -0.00278322 0.53064 3.57398 -0.0187477 2.03217e-16 0.0 3.88251e-19 9.31898 -8.18904 -8.46017 0.067822 23.5091 -0.562922 4.03694 -18.4646 12.6377
-4.65134 83.5924 38.4584 -3.428 2.2129 0.3357 2.61765 -0.678107 7.90746 0.826781 -4.83601 2.28259 -10.3538 9.027 -8.76396 10.9763 3.25801 -16.0263 -0.0 0.0 0.0 -0.0 0.0 0.0 7.32625e-14 2.14425e-14 9.85821e-14 18.6328 8.38552 47.9811 -27.2749 -43.2532 89.9543 -0.0152924 -3.53878 -0.497977 -3.11538e-10 -4.57388e-11 -3.25224e-10 -5.36592e-10 -7.61363e-11 -5.66662e-10 -3.11536e-10 -4.57362e-11 -3.25239e-10 7.73091 5.47488 0.417314 -3.11541e-10 -4.57375e-11 -3.25224e-10 2.90554 0.965183 0.102902 -3.11532e-10 -4.57369e-11 -3.2523e-10 10.2786 0.731801 0.0259123 -3.11538e-10 -4.57342e-11 -3.25231e-10 2.22167 -0.733487 -0.20892 7.30634e-14 2.14442e-14 9.84586e-14 -10.4771 -35.3436 -40.9259 13.7388 -56.9808 -127.864 0.0892562 -8.49107 1.20225 -4.1012e-10 -2.18053e-10 9.57557e-11 -7.06598e-10 -3.81771e-10 1.67155e-10 -4.10121e-10 -2.18051e-10 9.57679e-11 -7.73091 5.47488 -0.417314 -4.10118e-10 -2.18051e-10 9.5761e-11 -2.90554 0.965183 -0.102902 -4.10123e-10 -2.18051e-10 9.57536e-11 -10.2786 0.731801 -0.0259123 -4.10116e-10 -2.1805e-10 9.57449e-11 -2.22167 -0.733487 0.20892 -2.03217e-16 0.0 -3.88251e-19 -21.6247 -3.07737 -0.0138594 -0.000354361 -0.506455 -0.00280502 0.529623 3.57533 -0.0185855 2.03217e-16 0.0 3.88251e-19 9.31189 -8.16474 -8.39206 0.0685053 23.508 -0.56267 4.05149 -18.4944 12.6586
-4.64877 83.5922 38.4809 -3.4058 2.152 0.3536 2.67563 -0.777706 7.92209 0.742113 -4.85731 2.28243 -10.4748 8.8 -8.77936 11.2067 3.81384 -16.0702 -0.0 0.0 0.0 -0.0 0.0 0.0 1.94838e-14 4.01535e-14 8.33871e-14 18.6642 7.82606 48.3377 -27.4194 -42.8107 89.0875 -0.0135499 -3.33876 -0.469761 -6.06913e-11 -1.55189e-10 -3.91643e-10 -1.03394e-10 -2.66345e-10 -6.7995e-10 -6.06888e-11 -1.55187e-10 -3.91659e-10 7.73091 5.47488 0.417314 -6.06938e-11 -1.5519e-10 -3.91643e-10 2.90554 0.965183 0.102902 -6.06839e-11 -1.55189e-10 -3.91648e-10 10.2786 0.731801 0.0259123 -6.06909e-11 -1.55188e-10 -3.91645e-10 2.22167 -0.733487 -0.20892 1.93054e-14 4.01547e-14 8.31386e-14 -10.4762 -35.3244 -41.0104 13.7652 -56.9693 -127.811 0.0892072 -8.48879 1.20192 -2.08466e-10 -2.46065e-10 3.32891e-10 -3.61961e-10 -4.29474e-10 5.78508e-10 -2.08469e-10 -2.46064e-10 3.32902e-10 -7.73091 5.47488 -0.417314 -2.08463e-10 -2.46063e-10 3.32899e-10 -2.90554 0.965183 -0.102902 -2.08469e-10 -2.46063e-10 3.32889e-10 -10.2786 0.731801 -0.0259123 -2.08459e-10 -2.46062e-10 3.32878e-10 -2.22167 -0.733487 0.20892 -2.03217e-16 0.0 -3.88251e-19 -21.6245 -3.07686 -0.0138669 -0.000352482 -0.508286 -0.00278614 0.528782 3.57656 -0.01845 2.03217e-16 0.0 3.88251e-19 9.31175 -8.15498 -8.32443 0.0693458 23.5074 -0.562851 4.06976 -18.5394 12.6818
-4.65141 83.5896 38.508 -3.4011 2.1026 0.398 2.73475 -0.890506 7.93554 0.6553 -4.87329 2.28168 -10.6422 8.5914 -8.80577 11.5024 4.39765 -16.1394 -0.0 0.0 0.0 -0.0 0.0 0.0 -3.65423e-14 5.6678e-14 6.39198e-14 18.7342 7.33229 48.6735 -27.5463 -42.37 88.2585 -0.0119552 -3.13218 -0.440637 1.88196e-10 -2.52552e-10 -4.40412e-10 3.26265e-10 -4.3578e-10 -7.62569e-10 1.882e-10 -2.52551e-10 -4.40428e-10 7.73091 5.47488 0.417314 1.88194e-10 -2.52554e-10 -4.40411e-10 2.90554 0.965183 0.102902 1.88205e-10 -2.52554e-10 -4.40415e-10 10.2786 0.731801 0.0259123 1.88196e-10 -2.52554e-10 -4.40408e-10 2.22167 -0.733487 -0.20892 -3.66905e-14 5.66786e-14 6.35463e-14 -10.5139 -35.2581 -41.1117 13.7978 -56.955 -127.746 0.0893067 -8.49361 1.20261 1.41341e-11 -2.617e-10 5.57905e-10 1.89457e-11 -4.555e-10 9.68845e-10 1.41289e-11 -2.61699e-10 5.57915e-10 -7.73091 5.47488 -0.417314 1.41377e-11 -2.61698e-10 5.57916e-10 -2.90554 0.965183 -0.102902 1.41314e-11 -2.61698e-10 5.57904e-10 -10.2786 0.731801 -0.0259123 1.41435e-11 -2.61698e-10 5.5789e-10 -2.22167 -0.733487 0.20892 -2.03217e-16 0.0 -3.88251e-19 -21.6244 -3.07627 -0.0138701 -0.000349542 -0.510052 -0.00275799 0.528095 3.57763 -0.0183384 2.03217e-16 0.0 3.88251e-19 9.31212 -8.14946 -8.26974 0.0701864 23.5079 -0.563463 4.08741 -18.5849 12.7034
-4.65704 83.5888 38.549 -3.4127 2.0837 0.4124 2.7852 -1.00115 7.93421 0.575847 -4.88326 2.27704 -10.8375 8.42254 -8.83959 11.821 4.9254 -16.2235 -0.0 0.0 0.0 -0.0 0.0 0.0 -7.38896e-14 6.28158e-14 4.79071e-14 18.8559 6.98387 48.9334 -27.6419 -41.9952 87.5778 -0.0109161 -2.98167 -0.419429 3.32308e-10 -2.96793e-10 -4.50001e-10 5.74822e-10 -5.13068e-10 -7.77958e-10 3.32312e-10 -2.96793e-10 -4.50017e-10 7.73091 5.47488 0.417314 3.32306e-10 -2.96796e-10 -4.50001e-10 2.90554 0.965183 0.102902 3.32317e-10 -2.96796e-10 -4.50004e-10 10.2786 0.731801 0.0259123 3.32308e-10 -2.96797e-10 -4.49994e-10 2.22167 -0.733487 -0.20892 -7.40111e-14 6.2816e-14 4.74598e-14 -10.5766 -35.1527 -41.2108 13.8285 -56.9416 -127.685 0.0893574 -8.49608 1.20296 1.58773e-10 -2.43416e-10 6.67264e-10 2.66831e-10 -4.22918e-10 1.1585e-09 1.58767e-10 -2.43415e-10 6.67274e-10 -7.73091 5.47488 -0.417314 1.58777e-10 -2.43414e-10 6.67277e-10 -2.90554 0.965183 -0.102902 1.5877e-10 -2.43415e-10 6.67264e-10 -10.2786 0.731801 -0.0259123 1.58784e-10 -2.43414e-10 6.67249e-10 -2.22167 -0.733487 0.20892 -2.03217e-16 0.0 -3.88251e-19 -21.6242 -3.07633 -0.013881 -0.000348992 -0.510968 -0.00275199 0.527538 3.57852 -0.0182478 2.03217e-16 0.0 3.88251e-19 9.30647 -8.13787 -8.24049 0.07087 23.5097 -0.564504 4.10009 -18.6162 12.7191
-4.65002 83.5886 38.5904 -3.3883 2.1151 0.4087 2.82944 -1.11178 7.90855 0.503804 -4.88557 2.26574 -11.086 8.33768 -8.88042 12.1961 5.3422 -16.3222 -0.0 0.0 0.0 -0.0 0.0 0.0 -8.53942e-14 5.27275e-14 3.34653e-14 19.044 6.79444 49.0983 -27.7168 -41.6904 87.0206 -0.0104773 -2.91466 -0.409988 3.23442e-10 -2.52953e-10 -3.96724e-10 5.58891e-10 -4.37691e-10 -6.85303e-10 3.23446e-10 -2.52952e-10 -3.96737e-10 7.73091 5.47488 0.417314 3.23441e-10 -2.52954e-10 -3.96725e-10 2.90554 0.965183 0.102902 3.23451e-10 -2.52954e-10 -3.96727e-10 10.2786 0.731801 0.0259123 3.23441e-10 -2.52956e-10 -3.96718e-10 2.22167 -0.733487 -0.20892 -8.54948e-14 5.27276e-14 3.30146e-14 -10.6792 -34.9823 -41.3117 13.8615 -56.9271 -127.618 0.089738 -8.51314 1.20542 2.16991e-10 -1.82349e-10 6.15904e-10 3.67781e-10 -3.16273e-10 1.0694e-09 2.16986e-10 -1.82348e-10 6.15914e-10 -7.73091 5.47488 -0.417314 2.16994e-10 -1.82348e-10 6.15916e-10 -2.90554 0.965183 -0.102902 2.16987e-10 -1.82348e-10 6.15904e-10 -10.2786 0.731801 -0.0259123 2.17e-10 -1.82348e-10 6.1589e-10 -2.22167 -0.733487 0.20892 -2.03217e-16 0.0 -3.88251e-19 -21.6236 -3.07743 -0.013907 -0.00035278 -0.510509 -0.00278596 0.527066 3.57909 -0.0181732 2.03217e-16 0.0 3.88251e-19 9.28963 -8.1168 -8.24421 0.071418 23.5138 -0.566376 4.10569 -18.6259 12.7268
-4.63486 83.5877 38.6287 -3.3348 2.163 0.4068 2.87087 -1.22852 7.86777 0.434932 -4.8811 2.25019 -11.3874 8.31259 -8.92992 12.6358 5.70357 -16.4395 -0.0 0.0 0.0 -0.0 0.0 0.0 -8.27448e-14 3.20041e-14 1.77881e-14 19.284 6.71995 49.1962 -27.7808 -41.4309 86.5355 -0.0103319 -2.89416 -0.4071 2.23363e-10 -1.50921e-10 -2.98045e-10 3.85182e-10 -2.61544e-10 -5.14458e-10 2.23366e-10 -1.50919e-10 -2.98054e-10 7.73091 5.47488 0.417314 2.23361e-10 -1.5092e-10 -2.98047e-10 2.90554 0.965183 0.102902 2.23369e-10 -1.5092e-10 -2.98049e-10 10.2786 0.731801 0.0259123 2.23361e-10 -1.50922e-10 -2.98043e-10 2.22167 -0.733487 -0.20892 -8.28235e-14 3.20042e-14 1.7375e-14 -10.8224 -34.7521 -41.4218 13.8991 -56.9106 -127.543 0.0904138 -8.54334 1.20976 2.35567e-10 -9.10274e-11 4.6486e-10 4.01674e-10 -1.57129e-10 8.07409e-10 2.35563e-10 -9.10278e-11 4.64873e-10 -7.73091 5.47488 -0.417314 2.35569e-10 -9.10276e-11 4.64871e-10 -2.90554 0.965183 -0.102902 2.35562e-10 -9.10282e-11 4.64862e-10 -10.2786 0.731801 -0.0259123 2.35573e-10 -9.10282e-11 4.64849e-10 -2.22167 -0.733487 0.20892 -2.03217e-16 0.0 -3.88251e-19 -21.6229 -3.07912 -0.0139402 -0.00035872 -0.509199 -0.00283998 0.526705 3.57941 -0.0181174 2.03217e-16 0.0 3.88251e-19 9.26625 -8.09197 -8.27283 0.0718935 23.5197 -0.568945 4.10684 -18.6231 12.7291
